<svg xmlns="http://www.w3.org/2000/svg" viewBox="0 0 512 512" role="img" aria-label="오늘도 무럭무럭">
  <defs>
    <linearGradient id="bg" x1="0" y1="0" x2="0" y2="1">
      <stop offset="0" stop-color="#fdf3e4"/>
      <stop offset="1" stop-color="#f0dcbe"/>
    </linearGradient>
  </defs>
  <rect width="512" height="512" rx="112" fill="url(#bg)"/>
  <ellipse cx="256" cy="392" rx="150" ry="26" fill="#c7a97c" opacity=".35"/>
  <g transform="translate(76 74) scale(3)" fill="none" stroke="#3a2c44" stroke-width="4.4"
     stroke-linecap="round" stroke-linejoin="round"><ellipse cx="60" cy="115" rx="31" ry="5" fill="#3a2c44" opacity=".13" stroke="none"/><path d="M89 98 q24 -2 23 -23 q-1 -13 -12 -12" stroke-width="10" stroke="#f4a967"/><path d="M101 90 h10 M105 78 h7" stroke-width="3.2" stroke="#dd8340"/><path d="M28 108 q0 -32 32 -32 q32 0 32 32 z" fill="#f9bb7a"/><ellipse cx="60" cy="98" rx="19" ry="12" fill="#fffaf2" stroke="none"/><ellipse cx="46" cy="105" rx="9.5" ry="6" fill="#fffaf2"/><ellipse cx="74" cy="105" rx="9.5" ry="6" fill="#fffaf2"/><path d="M31 27 L25 2 L53 14 Z" fill="#f9bb7a"/><path d="M89 27 L95 2 L67 14 Z" fill="#f9bb7a"/><ellipse cx="60" cy="44" rx="35" ry="32" fill="#f9bb7a"/><path d="M35 22 L32 9 L45 15 Z" fill="#f6a6ae" stroke="none"/><path d="M85 22 L88 9 L75 15 Z" fill="#f6a6ae" stroke="none"/><path d="M60 12 q-12 0 -12 18 q0 13 12 13 q12 0 12 -13 q0 -18 -12 -18" fill="#fffaf2" stroke="none"/><ellipse cx="60" cy="58" rx="18" ry="12" fill="#fffaf2" stroke="none"/><path d="M41 22 q6 -6 11 -2 M79 22 q-6 -6 -11 -2" stroke="#e08d47" stroke-width="3.4"/><ellipse cx="42" cy="25" rx="12" ry="6.5" fill="#fff" opacity=".26" stroke="none" transform="rotate(-22 42 25)"/><ellipse cx="46" cy="44" rx="8" ry="8.8" fill="#3a2c44" stroke="none"/><circle cx="48.64" cy="40.48" r="2.88" fill="#fff" stroke="none"/><circle cx="43.12" cy="47.2" r="1.6" fill="#fff" opacity=".85" stroke="none"/><ellipse cx="74" cy="44" rx="8" ry="8.8" fill="#3a2c44" stroke="none"/><circle cx="76.64" cy="40.48" r="2.88" fill="#fff" stroke="none"/><circle cx="71.12" cy="47.2" r="1.6" fill="#fff" opacity=".85" stroke="none"/><ellipse cx="29" cy="57" rx="8.6" ry="5.6" fill="#f79ba0" stroke="none" opacity=".72"/><ellipse cx="91" cy="57" rx="8.6" ry="5.6" fill="#f79ba0" stroke="none" opacity=".72"/><path d="M56.4 52.6 q3.6 -1.6 7.2 0 q-1.4 5.2 -3.6 5.4 q-2.2 -0.2 -3.6 -5.4 z" fill="#3a2c44" stroke="none"/><path d="M53.5 61 q3.25 4.4 6.5 0 q3.25 4.4 6.5 0" stroke-width="3.2"/><path d="M25 52 l-14 -4 M25 61 l-14 4 M95 52 l14 -4 M95 61 l14 4" stroke-width="3"/></g>
</svg>
